<svg id="Layer_1" data-name="Layer 1" xmlns="http://www.w3.org/2000/svg" viewBox="0 0 302 83"><defs><style>.cls-1,.cls-2,.cls-3,.cls-4,.cls-5,.cls-6{isolation:isolate;}.cls-2,.cls-5{font-size:64.01px;font-family:Montserrat-ExtraBold, Montserrat;}.cls-2,.cls-3,.cls-7,.cls-8{fill:#ffe200;}.cls-2,.cls-4,.cls-5,.cls-6{font-weight:700;}.cls-3,.cls-7{font-size:70.83px;font-family:ArialMT, Arial;}.cls-4,.cls-6{font-size:63.75px;font-family:Arial-BoldMT, Arial;}.cls-4{fill:#aaa;}.cls-5,.cls-6{fill:none;}</style></defs><title>Artboard 1</title><g id="SS_OJ_" data-name="SS OJ " class="cls-1"><text class="cls-2" transform="translate(85.15 61.33)">SS</text><text class="cls-3" transform="translate(169 61.33)">[</text><text class="cls-4" transform="translate(188.68 61.33)">OJ</text></g><g id="SS_OJ_2" data-name="SS OJ " class="cls-1"><text class="cls-2" transform="translate(85.15 61.33)">SS</text><text class="cls-5" transform="translate(85.15 61.33)">SS</text><text class="cls-1"></text><text class="cls-4" transform="translate(188.68 61.33)">OJ</text><text class="cls-6" transform="translate(188.68 61.33)">o</text><text class="cls-7" transform="translate(273.72 61.33)">]</text></g><path class="cls-8" d="M42.59,8l-29,16.72-.05,33.56L42.64,75l29-16.72,0-33.56Zm-.2,8.2,7.53,4.34v8.7l-7.53,4.34-7.53-4.34v-8.7ZM27.25,24.89l7.53,4.34v8.7l-7.53,4.34,7.53,4.35v8.7l-7.53,4.34-7.53-4.34v-8.7l7.53-4.35-7.53-4.34v-8.7l7.53-4.34Zm30.22,0L65,29.23v8.7l-7.53,4.34L65,46.62v8.7l-7.53,4.34-7.53-4.34v-8.7l7.53-4.35-7.53-4.34v-8.7ZM42.39,33.6l7.53,4.34v8.7L42.4,51l7.52,4.34V64l-7.53,4.34L34.86,64v-8.7L42.37,51l-7.51-4.33v-8.7l7.53-4.34Z"/></svg>